<svg xmlns="http://www.w3.org/2000/svg" width="24" height="24" viewBox="0 0 24 24">
    <g fill="none" fill-rule="evenodd">
        <g>
            <g>
                <path d="M0 0H24V24H0z" transform="translate(-1021 -66) translate(1021 66)"/>
                <g fill="#000" fill-rule="nonzero">
                    <path d="M6.663 6l5.2-5.2c.183-.183.183-.48 0-.663-.183-.183-.48-.183-.663 0L6 5.337.8.137C.617-.046.32-.046.137.137-.046.32-.046.617.137.8l5.2 5.2-5.2 5.2c-.183.183-.183.48 0 .663.092.091.212.137.332.137.12 0 .24-.046.331-.137l5.2-5.2 5.2 5.2c.091.091.211.137.331.137.12 0 .24-.046.332-.137.183-.183.183-.48 0-.663L6.663 6z" transform="translate(-1021 -66) translate(1021 66) translate(6 6)"/>
                </g>
            </g>
        </g>
    </g>
</svg>
