<svg xmlns="http://www.w3.org/2000/svg" width="24" height="24" viewBox="0 0 24 24">
    <g fill="none" fill-rule="evenodd">
        <g fill-rule="nonzero">
            <g>
                <path fill="#4267B2" d="M22.675 0H1.324C.593 0 0 .593 0 1.325v21.351C0 23.407.593 24 1.325 24h21.35c.732 0 1.325-.593 1.325-1.324V1.323C24 .593 23.407 0 22.675 0z" transform="translate(-1384 -616) translate(1384 616)"/>
                <path fill="#FFF" d="M16.57 24v-9.281h3.13l.468-3.633H16.57V8.772c0-1.05.292-1.764 1.796-1.764h1.907v-3.24c-.331-.045-1.47-.143-2.794-.143-2.766 0-4.659 1.687-4.659 4.787v2.674H9.703v3.633h3.117V24h3.75z" transform="translate(-1384 -616) translate(1384 616)"/>
            </g>
        </g>
    </g>
</svg>
