<svg xmlns="http://www.w3.org/2000/svg" width="20" height="20" viewBox="0 0 20 20">
    <g fill="none" fill-rule="evenodd">
        <g fill="#929090" fill-rule="nonzero" stroke="#969696" stroke-width=".2">
            <g>
                <path d="M16.804 0H.756C.473 0 .214.158.084.41c-.13.255-.108.562.06.795l5.88 8.282.005.009c.214.288.33.637.33.996v6.753c-.001.2.077.392.218.534.141.141.333.221.533.221.102 0 .202-.02.296-.06l3.304-1.259c.296-.09.492-.37.492-.706v-5.483c0-.359.116-.708.33-.996l.006-.009 5.879-8.282c.168-.233.19-.54.06-.796-.13-.251-.39-.41-.673-.409zm-6.009 8.954c-.328.446-.506.985-.507 1.538v5.372l-3.015 1.15v-6.522c-.001-.553-.179-1.092-.507-1.538L1.058.914h15.445l-5.708 8.04z" transform="translate(-366 -183) translate(367.026 184)"/>
            </g>
        </g>
    </g>
</svg>
