<svg xmlns="http://www.w3.org/2000/svg" width="100" height="100" viewBox="0 0 100 100">
    <g fill="none" fill-rule="evenodd">
        <g>
            <g transform="translate(-700 -528) translate(700 528)">
                <circle cx="50" cy="50" r="49.75" fill="#FFECEC" stroke="#9E2F2F" stroke-width=".5"/>
                <g fill="#9E2F2F" fill-rule="nonzero">
                    <path d="M29.5 0H.5C.224 0 0 .322 0 .72v14.4h1V1.44h28v15.84H17.75v1.44H29.5c.276 0 .5-.322.5-.72V.72c0-.398-.224-.72-.5-.72z" transform="translate(35 28)"/>
                    <path d="M22.983 6.208c-.493-1.185-1.853-1.746-3.038-1.253l-.06.026-5.839 3.028c.23-.477.351-1 .354-1.529 0-1.988-1.612-3.6-3.6-3.6s-3.6 1.612-3.6 3.6c.003.781.262 1.54.738 2.16h-.03c-2.043.014-3.868 1.284-4.59 3.196l-1.921 6.625c-.458 1.189.135 2.523 1.323 2.98.542.21 1.143.206 1.683-.009.62-.25 1.102-.754 1.324-1.384l.753-2.397v10.42c-.62-.475-1.379-.735-2.16-.738-1.985-.003-3.597 1.604-3.6 3.59-.001.972.391 1.903 1.088 2.581C.702 34.07.004 35.204 0 36.446v6.034c0 .398.322.72.72.72h7.2c.398 0 .72-.322.72-.72v-6.034c-.004-1.02-.478-1.982-1.285-2.606h5.45c-.807.624-1.281 1.586-1.285 2.606v6.034c0 .398.322.72.72.72h7.2c.398 0 .72-.322.72-.72v-6.034c-.004-1.241-.702-2.377-1.808-2.942 1.422-1.387 1.45-3.665.062-5.086-.855-.876-2.095-1.257-3.294-1.012V12.677l6.61-3.432c1.185-.492 1.745-1.853 1.253-3.037zM10.8 4.32c1.193 0 2.16.967 2.16 2.16s-.967 2.16-2.16 2.16c-1.192-.001-2.159-.968-2.16-2.16 0-1.193.967-2.16 2.16-2.16zM4.32 28.773c1.193 0 2.16.967 2.16 2.16s-.967 2.16-2.16 2.16-2.16-.967-2.16-2.16c.001-1.192.968-2.158 2.16-2.16zM7.2 41.76H1.44v-5.314c.001-1.04.845-1.885 1.887-1.886h1.986c1.042.001 1.886.845 1.887 1.886v5.314zm11.52-5.314v5.314h-5.76v-5.314c.001-1.04.845-1.885 1.887-1.886h1.986c1.042.001 1.886.845 1.887 1.886zm-2.88-7.673c1.192.002 2.159.968 2.16 2.16 0 1.193-.967 2.16-2.16 2.16s-2.16-.967-2.16-2.16.967-2.16 2.16-2.16zM21.665 7.41c-.096.247-.294.441-.543.533L14.069 11.6c-.24.124-.389.37-.389.639v15.832c-1.349.997-1.816 2.802-1.12 4.328h-1.04V20.16h-1.44V32.4H7.6c.205-.453.313-.943.317-1.44h.003v-18c0-.398-.323-.72-.72-.72-.315 0-.593.204-.687.504l-2.15 6.842c-.163.449-.66.681-1.108.518-.032-.011-.063-.025-.093-.04-.415-.214-.591-.715-.402-1.143l1.922-6.625c.518-1.33 1.798-2.21 3.226-2.216h5.098c.116 0 .23-.028.332-.08l7.156-3.715c.43-.18.924.004 1.133.42.111.218.125.474.038.704z" transform="translate(35 28)"/>
                </g>
            </g>
        </g>
    </g>
</svg>
