<svg xmlns="http://www.w3.org/2000/svg" width="100" height="100" viewBox="0 0 100 100">
    <g fill="none" fill-rule="evenodd">
        <g>
            <g transform="translate(-337 -318) translate(337 318)">
                <circle cx="50" cy="50" r="49.75" fill="#F1F6FD" stroke="#617A9D" stroke-width=".5"/>
                <path fill="#617A9D" fill-rule="nonzero" d="M65 66.8v-3.107c1.152-.486 1.873-1.645 1.8-2.893 0-1.654-1.076-3-2.4-3-1.324 0-2.4 1.346-2.4 3-.073 1.248.648 2.407 1.8 2.893V66.8h-3V48.2c0-.227-.128-.435-.332-.537L56 45.429V42.2c0-.268-.177-.504-.435-.577L47.6 39.347V32.6c0-.331-.269-.6-.6-.6H35c-.331 0-.6.269-.6.6v34.2H32V68h36v-1.2h-3zm-18.6 0H35.6v-1.2H41v-1.2h-5.4V62H41v-1.2h-5.4v-2.4H41v-1.2h-5.4v-2.4H41v-1.2h-5.4v-2.4H41V50h-5.4v-2.4H41v-1.2h-5.4V44H41v-1.2h-5.4v-2.4H41v-1.2h-5.4v-2.4H41v-1.2h-5.4v-2.4h10.8v33.6zm8.4 0h-7.2v-1.2h4.2v-1.2h-4.2V62h4.2v-1.2h-4.2v-2.4h4.2v-1.2h-4.2v-2.4h4.2v-1.2h-4.2v-2.4h4.2V50h-4.2v-2.4h4.2v-1.2h-4.2V44h4.2v-1.2h-4.2v-2.204l7.2 2.056V66.8zm4.8 0H56v-1.2h1.8v-1.2H56V62h1.8v-1.2H56v-2.4h1.8v-1.2H56v-2.4h1.8v-1.2H56v-2.4h1.8V50H56v-3.23l3.6 1.8V66.8zm4.2-4.458c-.403-.41-.62-.968-.6-1.542 0-.976.55-1.8 1.2-1.8.65 0 1.2.824 1.2 1.8.02.574-.197 1.132-.6 1.542V61.4h-1.2v.942z"/>
            </g>
        </g>
    </g>
</svg>
