<svg xmlns="http://www.w3.org/2000/svg" width="100" height="100" viewBox="0 0 100 100">
    <g fill="none" fill-rule="evenodd">
        <g>
            <g transform="translate(-1061 -528) translate(1061 528)">
                <circle cx="50" cy="50" r="49.75" fill="#F3F9EA" stroke="#53771C" stroke-width=".5"/>
                <g fill="#53771C" fill-rule="nonzero">
                    <path d="M15.094 9.15c-.363 0-.656.294-.656.657V21c0 .363.293.657.656.657.363 0 .656-.294.656-.657V9.807c0-.363-.293-.656-.656-.656zM33.469 9.111c-.363 0-.656.293-.656.656V21c0 .363.293.657.656.657.363 0 .656-.294.656-.657V9.767c0-.363-.293-.656-.656-.656zM24.818.277c-.21-.295-.618-.365-.915-.157L12.747 7.995c-.296.21-.367.619-.158.915.128.181.33.278.537.278.13 0 .262-.04.379-.12L24.66 1.193c.296-.21.366-.619.157-.916z" transform="translate(29 29)"/>
                    <path d="M35.817 7.995L24.661.12c-.298-.209-.706-.138-.916.157-.209.298-.138.706.158.916l11.156 7.875c.116.08.247.12.378.12.206 0 .409-.097.538-.278.209-.297.138-.706-.158-.915zM24.818 2.902c-.21-.294-.618-.365-.915-.157L12.747 10.62c-.296.21-.367.619-.158.915.128.181.33.278.537.278.13 0 .262-.04.379-.12L24.66 3.818c.296-.21.366-.619.157-.916z" transform="translate(29 29)"/>
                    <path d="M35.817 10.62L24.661 2.745c-.298-.209-.706-.137-.916.157-.209.298-.138.706.158.916l11.156 7.875c.116.08.247.12.378.12.206 0 .409-.097.538-.278.209-.297.138-.706-.158-.915zM13.125 7.875c-.363 0-.656.294-.656.657v2.625c0 .363.293.656.656.656.363 0 .656-.293.656-.656V8.532c0-.363-.293-.657-.656-.657z" transform="translate(29 29)"/>
                    <path d="M35.438 7.875c-.363 0-.657.294-.657.657v2.625c0 .363.294.656.657.656.363 0 .656-.293.656-.656V8.532c0-.363-.293-.657-.656-.657zM26.906 11.813h-5.25c-.362 0-.656.293-.656.656V21c0 .363.294.657.656.657h5.25c.363 0 .657-.294.657-.657v-8.53c0-.364-.294-.657-.657-.657zm-.656 8.531h-3.937v-7.219h3.937v7.22z" transform="translate(29 29)"/>
                    <path d="M33.469 20.344H15.094c-.363 0-.656.294-.656.656 0 .363.293.657.656.657h18.375c.363 0 .656-.294.656-.657 0-.362-.293-.656-.656-.656zM3.957 38.063H3.95c-.362 0-.652.293-.652.656 0 .363.297.656.66.656.362 0 .656-.293.656-.656 0-.363-.294-.656-.657-.656zM38.719 26.25c-.363 0-.656.294-.656.657 0 .363.293.656.656.656 1.085 0 1.969.883 1.969 1.969 0 .701-.377 1.355-.985 1.706-.313.181-.42.582-.239.896.121.21.342.328.569.328.111 0 .224-.028.328-.089C41.372 31.79 42 30.7 42 29.532c0-1.81-1.473-3.282-3.282-3.282z" transform="translate(29 29)"/>
                    <path d="M40.609 31.495c-.172-.32-.57-.44-.889-.268l-17.718 9.54c-.32.17-.44.57-.267.888.118.22.345.345.578.345.105 0 .212-.025.31-.078l17.719-9.539c.319-.171.439-.57.267-.888z" transform="translate(29 29)"/>
                    <path d="M22.397 40.694L7.304 38.725c-.362-.051-.689.206-.735.566-.048.359.206.688.565.735l15.094 1.969c.029.003.057.005.085.005.325 0 .607-.24.65-.571.048-.36-.206-.689-.566-.735z" transform="translate(29 29)"/>
                    <path d="M7.219 22.313H.656c-.362 0-.656.293-.656.656v17.719c0 .363.294.656.656.656H7.22c.363 0 .656-.293.656-.656V22.969c0-.363-.293-.656-.656-.656zm-.656 17.719h-5.25V23.625h5.25v16.407zM38.92 26.847c-.054-.358-.39-.604-.748-.55l-12.676 1.93c-.359.054-.605.389-.55.747.049.325.328.558.647.558.033 0 .067-.003.1-.008l12.677-1.93c.358-.054.604-.389.55-.747z" transform="translate(29 29)"/>
                    <path d="M23.531 25.643c-.355-.06-.696.178-.758.535-.061.357.178.697.535.758.945.163 1.63.979 1.63 1.94 0 1.085-.884 1.968-1.969 1.968-.363 0-.656.294-.656.656 0 .363.293.657.656.657 1.81 0 3.281-1.472 3.281-3.282 0-1.6-1.143-2.961-2.719-3.232z" transform="translate(29 29)"/>
                    <path d="M23.546 25.645L13.25 23.637c-.357-.07-.7.163-.77.519-.07.355.163.7.518.77l10.295 2.008c.042.008.085.012.126.012.308 0 .583-.217.644-.53.07-.357-.162-.702-.518-.77z" transform="translate(29 29)"/>
                    <path d="M13.125 23.625H7.22c-.363 0-.656.294-.656.657 0 .363.293.656.656.656h5.906c.363 0 .656-.293.656-.656 0-.363-.293-.657-.656-.657zM22.743 30.832l-8.255-.642c-.361-.031-.676.241-.705.604-.028.361.243.676.604.704l8.255.642c.017.002.034.002.051.002.34 0 .627-.262.654-.605.028-.362-.242-.677-.604-.705zM38.719 26.25c-.189 0-.377.016-.56.048-.357.061-.597.4-.535.758.054.32.331.545.645.545.037 0 .075-.003.112-.01.11-.018.222-.028.338-.028.363 0 .656-.293.656-.656 0-.363-.293-.657-.656-.657z" transform="translate(29 29)"/>
                    <path d="M22.969 30.844c-.069 0-.138-.004-.205-.011-.363-.042-.684.222-.722.583-.038.36.222.684.583.722.112.012.227.019.344.019.363 0 .656-.294.656-.657 0-.362-.293-.656-.656-.656zM22.989 16.407h-.008c-.362 0-.652.293-.652.656 0 .363.297.656.66.656.362 0 .656-.293.656-.656 0-.363-.294-.656-.656-.656z" transform="translate(29 29)"/>
                </g>
            </g>
        </g>
    </g>
</svg>
