<svg xmlns="http://www.w3.org/2000/svg" width="100" height="100" viewBox="0 0 100 100">
    <g fill="none" fill-rule="evenodd">
        <g>
            <g transform="translate(-337 -526) translate(337 526)">
                <circle cx="50" cy="50" r="49.75" fill="#FBF7E2" stroke="#B7A120" stroke-width=".5"/>
                <g fill="#B7A120" fill-rule="nonzero">
                    <path d="M14.758 23.71c-.454 0-.823.375-.823.839v2.77c0 2.313-1.845 4.196-4.112 4.196-2.268 0-4.113-1.883-4.113-4.196v-2.77c0-.464-.369-.84-.823-.84-.454 0-.822.376-.822.84v2.77c0 3.239 2.583 5.875 5.758 5.875s5.758-2.636 5.758-5.875v-2.77c0-.464-.369-.84-.823-.84z" transform="translate(29 29)"/>
                    <path d="M41.18 9.515h-5.252C35.839 4.253 31.532 0 26.25 0c-5.282 0-9.59 4.253-9.678 9.515H11.32c-.453 0-.82.368-.82.82v10.337H.82c-.453 0-.82.367-.82.82V41.18c0 .453.367.82.82.82h40.36c.453 0 .82-.367.82-.82V10.336c0-.453-.367-.82-.82-.82zm-22.97.165c0-4.433 3.607-8.04 8.04-8.04 4.433 0 8.04 3.607 8.04 8.04v5.824c0 .452-.369.82-.821.82-.453 0-.82-.368-.82-.82V9.68c0-3.528-2.87-6.399-6.399-6.399-3.528 0-6.398 2.87-6.398 6.399v5.824c0 .452-.368.82-.82.82-.453 0-.821-.368-.821-.82V9.68zm12.794-.165h-9.508c.087-2.547 2.186-4.593 4.754-4.593 2.568 0 4.667 2.046 4.754 4.593zm9.355 30.844H20.016v-5.332c0-.453-.368-.82-.82-.82-.454 0-.821.367-.821.82v5.332H1.641V22.312h16.734v5.333c0 .453.367.82.82.82.453 0 .82-.367.82-.82v-6.153c0-.453-.367-.82-.82-.82h-7.054v-9.516h4.43v4.348c0 1.357 1.103 2.46 2.46 2.46s2.461-1.103 2.461-2.46v-4.348h9.516v4.348c0 1.357 1.104 2.46 2.46 2.46 1.358 0 2.462-1.103 2.462-2.46v-4.348h4.43v29.203z" transform="translate(29 29)"/>
                    <path d="M18.968 31.161c-.178 0-.353.073-.48.199-.125.126-.198.3-.198.479 0 .178.073.353.199.479s.3.198.479.198c.178 0 .353-.072.479-.198s.198-.301.198-.48c0-.177-.072-.352-.198-.478s-.301-.199-.48-.199z" transform="translate(29 29)"/>
                </g>
            </g>
        </g>
    </g>
</svg>
