<svg xmlns="http://www.w3.org/2000/svg" width="100" height="100" viewBox="0 0 100 100">
    <g fill="none" fill-rule="evenodd">
        <g>
            <g transform="translate(-1061 -318) translate(1061 318)">
                <circle cx="50" cy="50" r="49.75" fill="#FAEDDE" stroke="#E07C00" stroke-width=".5"/>
                <g fill="#E07C00" fill-rule="nonzero">
                    <path d="M30.905 35.41c-4.91 0-8.905-3.995-8.905-8.905 0-4.91 3.995-8.905 8.905-8.905 4.91 0 8.905 3.995 8.905 8.905 0 4.91-3.995 8.905-8.905 8.905zm0-16.029c-3.929 0-7.124 3.195-7.124 7.124s3.195 7.124 7.124 7.124 7.124-3.195 7.124-7.124-3.195-7.124-7.124-7.124z" transform="translate(28 30)"/>
                    <path d="M43.1 39.6c-.23 0-.462-.088-.638-.263l-5.532-5.532c-.351-.351-.351-.923 0-1.275.352-.351.923-.351 1.275 0l5.531 5.532c.352.352.352.923 0 1.275-.175.175-.405.263-.636.263zM21.083 36.457H.917c-.506 0-.917-.47-.917-1.047 0-.579.41-1.048.917-1.048h20.166c.506 0 .917.47.917 1.048 0 .578-.41 1.047-.917 1.047z" transform="translate(28 30)"/>
                    <path d="M5.081 36.457c-.492 0-.89-.41-.89-.917V8.04c0-.506.398-.916.89-.916H21.11c.491 0 .89.41.89.916v12.834c0 .506-.399.916-.89.916-.492 0-.891-.41-.891-.916V8.957H5.971V35.54c0 .506-.399.917-.89.917z" transform="translate(28 30)"/>
                    <path d="M17.897 8.171c-.53 0-.96-.41-.96-.916V2.67H9.254v4.584c0 .506-.43.916-.96.916s-.96-.41-.96-.916v-5.5c0-.506.43-.917.96-.917h9.603c.53 0 .96.41.96.917v5.5c0 .506-.43.916-.96.916zM10.476 36.457c-.578 0-1.047-.415-1.047-.927V13.29c0-.512.469-.927 1.047-.927s1.048.415 1.048.927V35.53c0 .512-.47.927-1.048.927zM15.714 36.457c-.578 0-1.047-.415-1.047-.927V13.29c0-.512.469-.927 1.047-.927.579 0 1.048.415 1.048.927V35.53c0 .512-.47.927-1.048.927z" transform="translate(28 30)"/>
                </g>
            </g>
        </g>
    </g>
</svg>
