<svg xmlns="http://www.w3.org/2000/svg" width="100" height="100" viewBox="0 0 100 100">
    <g fill="none" fill-rule="evenodd">
        <g>
            <g transform="translate(-700 -318) translate(700 318)">
                <circle cx="50" cy="50" r="49.75" fill="#F7FDFF" stroke="#2C687B" stroke-width=".5"/>
                <g fill="#2C687B" fill-rule="nonzero">
                    <g>
                        <path d="M1.463 12.251c-.16-.16-.38-.251-.606-.251-.225 0-.446.092-.606.251-.16.16-.251.38-.251.606 0 .226.092.447.251.606.16.16.38.251.606.251.226 0 .447-.091.606-.25.16-.16.251-.381.251-.607 0-.225-.091-.446-.25-.606z" transform="translate(35 32)"/>
                        <path d="M27.877 0H13.561c-.39 0-.707.322-.707.72 0 .397.317.72.707.72h14.316c.39 0 .708.323.708.72v32.538c0 .396-.318.72-.708.72H2.123c-.39 0-.708-.324-.708-.72V15.429c0-.397-.317-.72-.707-.72-.391 0-.708.323-.708.72v19.269c0 1.19.952 2.16 2.123 2.16h25.754c1.17 0 2.123-.97 2.123-2.16V2.16C30 .969 29.048 0 27.877 0z" transform="translate(35 32)"/>
                        <path d="M15.368 3.429c-.485 0-.973.036-1.45.109-.39.06-.657.421-.597.808.06.387.424.652.813.593.406-.061.82-.093 1.234-.093 4.446 0 8.062 3.594 8.062 8.011 0 1.962-.713 3.76-1.896 5.155-.523-.894-1.237-1.665-2.105-2.264-.506-.349-1.05-.627-1.62-.833.65-.632 1.055-1.511 1.055-2.483v-.691c0-1.916-1.568-3.474-3.496-3.474s-3.496 1.558-3.496 3.474v.69c0 .973.404 1.852 1.054 2.484-.569.206-1.113.484-1.619.833-.872.601-1.589 1.377-2.113 2.276-.9-1.064-1.53-2.372-1.777-3.831-.065-.386-.433-.647-.821-.582-.389.064-.651.43-.586.816.367 2.174 1.502 4.163 3.198 5.602 1.714 1.455 3.902 2.257 6.16 2.257 5.232 0 9.49-4.23 9.49-9.429S20.6 3.43 15.367 3.43zM13.3 11.74c0-1.134.928-2.056 2.07-2.056 1.14 0 2.068.922 2.068 2.056v.69c0 1.134-.928 2.057-2.069 2.057-1.14 0-2.069-.923-2.069-2.056v-.691zm2.07 9.127c-1.933 0-3.718-.67-5.116-1.807.958-1.932 2.917-3.156 5.115-3.156 2.194 0 4.149 1.22 5.109 3.144-1.392 1.136-3.172 1.819-5.109 1.819zM21.598 28.286H11.83c-.38 0-.688.384-.688.857s.308.857.688.857h9.767c.38 0 .688-.384.688-.857s-.308-.857-.688-.857zM9.177 25.108c-.159-.16-.38-.25-.606-.25-.225 0-.446.09-.606.25-.159.16-.25.38-.25.606 0 .226.091.447.25.606.16.16.381.251.606.251.226 0 .447-.091.606-.25.16-.16.252-.381.252-.607 0-.225-.091-.446-.252-.606zM9.177 28.537c-.159-.16-.38-.251-.606-.251-.225 0-.446.091-.606.25-.159.16-.25.381-.25.607 0 .226.091.446.25.606.16.16.381.251.606.251.226 0 .447-.092.606-.251.16-.16.252-.38.252-.606 0-.226-.091-.447-.252-.606zM21.598 24.857H11.83c-.38 0-.688.384-.688.857 0 .474.308.857.688.857h9.767c.38 0 .688-.383.688-.857 0-.473-.308-.857-.688-.857zM8.378 4.496c-.258-.28-.676-.28-.935 0l-2.151 2.34-.735-.8c-.259-.28-.677-.28-.935 0-.258.281-.258.736 0 1.017l1.203 1.308c.129.14.298.21.467.21.169 0 .338-.07.467-.21l2.619-2.849c.258-.28.258-.735 0-1.016z" transform="translate(35 32)"/>
                        <path d="M6 0C2.692 0 0 2.692 0 6s2.692 6 6 6 6-2.692 6-6-2.692-6-6-6zm0 10.537C3.499 10.537 1.463 8.5 1.463 6S3.5 1.463 6 1.463 10.537 3.5 10.537 6 8.5 10.537 6 10.537z" transform="translate(35 32)"/>
                    </g>
                </g>
            </g>
        </g>
    </g>
</svg>
