<svg xmlns="http://www.w3.org/2000/svg" width="24" height="24" viewBox="0 0 24 24">
    <defs>
        <linearGradient id="hp1vr2gl8a" x1="6.731%" x2="93.591%" y1="93.485%" y2="6.619%">
            <stop offset="0%" stop-color="#FD5"/>
            <stop offset="50%" stop-color="#FF543E"/>
            <stop offset="100%" stop-color="#C837AB"/>
        </linearGradient>
    </defs>
    <g fill="none" fill-rule="evenodd">
        <g fill-rule="nonzero">
            <g>
                <path fill="url(#hp1vr2gl8a)" d="M1.6 1.686C-.275 3.633.109 5.702.109 11.987c0 5.22-.91 10.452 3.855 11.684 1.488.383 14.675.383 16.161-.002 1.985-.512 3.6-2.122 3.82-4.928.03-.392.03-13.109 0-13.508-.236-2.99-2.076-4.713-4.5-5.062-.556-.08-.668-.104-3.519-.109C5.812.067 3.596-.383 1.6 1.686z" transform="translate(-1384 -664) translate(1384 664)"/>
                <path fill="#FFF" d="M12.037 3.183c-3.61 0-7.038-.321-8.347 3.039-.541 1.388-.463 3.19-.463 5.771 0 2.265-.072 4.393.463 5.77 1.306 3.363 4.762 3.04 8.345 3.04 3.457 0 7.02.36 8.346-3.04.542-1.401.462-3.177.462-5.77 0-3.442.19-5.664-1.48-7.332-1.69-1.69-3.975-1.478-7.33-1.478h.004zm-.79 1.588c7.53-.012 8.489-.85 7.96 10.78-.188 4.112-3.32 3.66-7.17 3.66-7.018 0-7.22-.2-7.22-7.222 0-7.103.557-7.214 6.43-7.22v.002zm5.492 1.462c-.583 0-1.057.473-1.057 1.057 0 .583.474 1.057 1.057 1.057.584 0 1.057-.474 1.057-1.057 0-.584-.473-1.057-1.057-1.057zm-4.702 1.236c-2.499 0-4.524 2.026-4.524 4.524 0 2.499 2.025 4.524 4.524 4.524 2.498 0 4.522-2.025 4.522-4.524 0-2.498-2.024-4.524-4.522-4.524zm0 1.587c3.882 0 3.887 5.874 0 5.874-3.881 0-3.887-5.874 0-5.874z" transform="translate(-1384 -664) translate(1384 664)"/>
            </g>
        </g>
    </g>
</svg>
