<svg xmlns="http://www.w3.org/2000/svg" width="20" height="20" viewBox="0 0 20 20">
    <g fill="none" fill-rule="evenodd">
        <g fill="#929090" fill-rule="nonzero">
            <g>
                <g>
                    <path d="M20 9.412h-2.375c-.287-3.749-3.288-6.75-7.037-7.037V0H9.412v2.375c-3.749.287-6.75 3.288-7.037 7.037H0v1.176h2.375c.287 3.749 3.288 6.75 7.037 7.037V20h1.176v-2.375c3.749-.287 6.75-3.288 7.037-7.037H20V9.412zm-3.556 0H13.48c-.249-1.476-1.416-2.643-2.892-2.892V3.556c3.1.281 5.575 2.756 5.856 5.856zM10 12.352c-1.297 0-2.353-1.055-2.353-2.352S8.703 7.647 10 7.647c1.297 0 2.353 1.056 2.353 2.353 0 1.297-1.056 2.353-2.353 2.353zm-.588-8.796V6.52c-1.476.249-2.643 1.416-2.892 2.892H3.556c.281-3.1 2.756-5.575 5.856-5.856zm-5.856 7.032H6.52c.249 1.476 1.416 2.643 2.892 2.892v2.964c-3.1-.281-5.575-2.756-5.856-5.856zm7.032 5.856V13.48c1.476-.249 2.643-1.416 2.892-2.892h2.964c-.281 3.1-2.756 5.575-5.856 5.856z" transform="translate(-526 -108) translate(510 94) translate(16 14)"/>
                    <path d="M9.412 9.412L10.588 9.412 10.588 10.588 9.412 10.588z" transform="translate(-526 -108) translate(510 94) translate(16 14)"/>
                </g>
            </g>
        </g>
    </g>
</svg>
