<svg xmlns="http://www.w3.org/2000/svg" width="24" height="24" viewBox="0 0 24 24">
    <g fill="none" fill-rule="evenodd">
        <g>
            <g>
                <path d="M0 0H24V24H0z" transform="translate(-159 -265) translate(159 265)"/>
                <g fill="#000" fill-rule="nonzero">
                    <path d="M6.5.904C2.916.904 0 3.887 0 7.554c0 1.207.53 2.505.551 2.56.171.415.509 1.06.752 1.437l4.456 6.908c.183.283.453.445.741.445s.558-.162.74-.445l4.458-6.908c.243-.378.58-1.022.751-1.437.022-.055.551-1.353.551-2.56 0-3.667-2.916-6.65-6.5-6.65zm5.244 8.906c-.153.372-.466.972-.685 1.31L6.602 18.03c-.088.136-.116.136-.204 0L1.941 11.12c-.218-.338-.532-.938-.685-1.31C1.25 9.794.765 8.599.765 7.554c0-3.236 2.573-5.867 5.735-5.867 3.162 0 5.735 2.631 5.735 5.867 0 1.046-.486 2.244-.491 2.256z" transform="translate(-159 -265) translate(159 265) matrix(-1 0 0 1 19 2)"/>
                    <path d="M6.5 3.904c-1.93 0-3.5 1.57-3.5 3.5s1.57 3.5 3.5 3.5 3.5-1.57 3.5-3.5-1.57-3.5-3.5-3.5zm0 6.222c-1.5 0-2.722-1.22-2.722-2.722 0-1.5 1.221-2.722 2.722-2.722 1.5 0 2.722 1.221 2.722 2.722S8.001 10.126 6.5 10.126z" transform="translate(-159 -265) translate(159 265) matrix(-1 0 0 1 19 2)"/>
                </g>
            </g>
        </g>
    </g>
</svg>
