<svg xmlns="http://www.w3.org/2000/svg" width="24" height="24" viewBox="0 0 24 24">
    <g fill="none" fill-rule="evenodd">
        <g>
            <g>
                <path d="M0 0H24V24H0z" transform="translate(-159 -361) translate(159 361)"/>
                <path fill="#000" fill-rule="nonzero" d="M17.781 7H7.22C6.547 7 6 7.56 6 8.25v7.5c0 .69.547 1.25 1.219 1.25H17.78c.672 0 1.219-.56 1.219-1.25v-7.5C19 7.56 18.453 7 17.781 7zm0 .833c.055 0 .108.012.156.033L12.5 12.699 7.063 7.866c.048-.02.1-.033.156-.033H17.78zm0 8.334H7.22c-.224 0-.407-.187-.407-.417V8.746l5.422 4.819c.076.068.171.102.266.102s.19-.034.266-.102l5.422-4.819v7.004c0 .23-.183.417-.407.417z" transform="translate(-159 -361) translate(159 361)"/>
            </g>
        </g>
    </g>
</svg>
