<svg xmlns="http://www.w3.org/2000/svg" width="24" height="24" viewBox="0 0 24 24">
    <g fill="none" fill-rule="evenodd">
        <g>
            <g>
                <g>
                    <path d="M0 0H24V24H0z" transform="translate(-159 -409) translate(159 409)"/>
                    <path fill="#000002" fill-rule="nonzero" d="M18.597 15.51l-2.024-2.033c-.271-.271-.635-.42-1.024-.42-.405 0-.787.16-1.076.45l-.787.79c-.612-.341-1.426-.811-2.27-1.66-.844-.847-1.312-1.662-1.654-2.28l.789-.792c.586-.59.598-1.536.026-2.11L8.554 5.424C8.284 5.15 7.92 5 7.53 5c-.396 0-.77.153-1.057.431-.174.141-1.046.914-1.371 2.509-.455 2.232.59 4.379 3.608 7.412C12.081 18.737 14.96 19 15.761 19c.167 0 .268-.01.295-.013 1.572-.186 2.135-.887 2.546-1.4.532-.663.53-1.536-.005-2.076zm-.8 1.425c-.378.472-.735.917-1.929 1.058 0 0-.066.007-.19.007-.701 0-3.23-.24-6.299-3.322-2.723-2.739-3.68-4.617-3.3-6.483.278-1.361 1.015-1.94 1.043-1.962l.026-.02.022-.022c.123-.123.284-.191.453-.191.154 0 .296.058.401.164l1.98 1.99c.228.23.216.614-.026.858l-.873.876-.014.016c-.228.251-.2.592-.076.813.362.656.857 1.554 1.81 2.511.95.955 1.841 1.452 2.492 1.814.065.037.2.099.368.099.198 0 .38-.085.516-.239l.819-.823c.122-.123.282-.19.451-.19.154 0 .297.058.402.163l1.98 1.99c.25.253.147.64-.056.893z" transform="translate(-159 -409) translate(159 409)"/>
                </g>
            </g>
        </g>
    </g>
</svg>
