<svg xmlns="http://www.w3.org/2000/svg" width="51" height="50" viewBox="0 0 51 50">
    <g fill="none" fill-rule="evenodd">
        <g fill="#FF8719">
            <g transform="translate(-584 -436) translate(584.75 436)">
                <circle cx="25" cy="25" r="25" opacity=".1"/>
                <g fill-rule="nonzero">
                    <path d="M17.892 9.094h-.054V7.76c0-4.286-3.449-7.76-7.703-7.76-4.254 0-7.702 3.474-7.702 7.76v1.334h-.324C.919 9.094 0 10.156 0 11.381v3.404c-.03 1.187.901 2.174 2.08 2.205h2.028c.283-.013.502-.256.488-.54 0-.011 0-.021-.002-.032v-6.67c0-.327-.189-.654-.486-.654h-.595V7.76c0-3.684 2.965-6.67 6.621-6.67 3.657 0 6.622 2.986 6.622 6.67v1.334h-.595c-.297 0-.486.327-.486.654v6.67c-.03.284.174.54.456.57l.03.002h.622l-.054.082c-.811 1.086-2.084 1.722-3.432 1.715-.296-1.459-1.709-2.4-3.157-2.102-1.238.254-2.13 1.346-2.14 2.62C8.014 20.797 9.22 22 10.702 22c.734-.012 1.433-.315 1.946-.844.346-.357.573-.814.649-1.307 1.689.006 3.282-.79 4.297-2.151l.513-.762c1.162-.082 1.892-.817 1.892-1.88v-3.403c0-1.17-.865-2.559-2.108-2.559zM3.514 15.901H2.11c-.582-.014-1.043-.501-1.028-1.087V11.38c0-.626.433-1.198 1.028-1.198h1.405v5.718zm8.351 4.493c-.3.327-.72.514-1.162.517-.88-.014-1.593-.721-1.621-1.606 0-.888.713-1.607 1.593-1.608.881 0 1.595.719 1.596 1.606v.002c.022.404-.125.799-.406 1.089zm7.054-5.337c0 .735-.703.844-1.027.844h-1.135v-5.718h1.135c.595 0 1.027.844 1.027 1.47v3.404z" transform="translate(15.25 14)"/>
                </g>
            </g>
        </g>
    </g>
</svg>
