<svg xmlns="http://www.w3.org/2000/svg" width="50" height="50" viewBox="0 0 50 50">
    <g fill="none" fill-rule="evenodd">
        <g fill="#FF8719">
            <g transform="translate(-313 -436) translate(313 436)">
                <circle cx="25" cy="25" r="25" opacity=".1"/>
                <g fill-rule="nonzero">
                    <path d="M14.21 9.258h-2.718c-.744 0-1.349.589-1.349 1.313V12.6c0 .724.605 1.313 1.349 1.313h2.717c.744 0 1.349-.59 1.349-1.313v-2.03c0-.723-.605-1.312-1.349-1.312zm.367 3.342c0 .199-.168.358-.368.358h-2.717c-.205 0-.368-.163-.368-.358v-2.03c0-.198.167-.357.368-.357h2.717c.205 0 .368.163.368.358V12.6z" transform="translate(15 17)"/>
                    <path d="M20 5.57c0-.084-.02-.163-.065-.235L16.96.243C16.874.095 16.71 0 16.535 0H3.46c-.175 0-.339.092-.425.243L.066 5.335C.024 5.407 0 5.486 0 5.57c0 1.142.707 2.12 1.716 2.554v8.399c0 .262.221.477.49.477H17.79c.27 0 .49-.215.49-.477v-8.34c0-.02 0-.035-.004-.051C19.29 7.698 20 6.716 20 5.57zM3.747.959h12.501l2.326 3.982H1.426L3.747.96zm10.487 4.933c-.156.86-.928 1.512-1.856 1.512-.927 0-1.7-.653-1.855-1.512h3.71zm-4.753 0c-.155.86-.928 1.512-1.855 1.512-.928 0-1.7-.653-1.86-1.512h3.715zm-8.468 0h3.715c-.155.86-.932 1.512-1.86 1.512-.927.004-1.7-.653-1.855-1.512zM8.24 16.045h-2.82v-5.152c0-.374.31-.68.699-.68h1.426c.384 0 .699.302.699.68v5.152h-.004zm9.06 0h-8.08v-5.152c0-.9-.751-1.635-1.68-1.635H6.115c-.924 0-1.68.732-1.68 1.635v5.156H2.697V8.36c.057.004.115.004.172.004.989 0 1.863-.49 2.378-1.234.515.744 1.39 1.234 2.379 1.234.989 0 1.86-.49 2.378-1.234.515.744 1.39 1.234 2.374 1.234.99 0 1.86-.49 2.375-1.234.515.744 1.39 1.234 2.378 1.234.057 0 .11-.004.168-.004v7.686zm-.168-8.637c-.927 0-1.7-.653-1.855-1.512h3.715c-.16.855-.932 1.512-1.86 1.512z" transform="translate(15 17)"/>
                </g>
            </g>
        </g>
    </g>
</svg>
