<svg xmlns="http://www.w3.org/2000/svg" width="51" height="50" viewBox="0 0 51 50">
    <g fill="none" fill-rule="evenodd">
        <g fill="#FF8719">
            <g transform="translate(-856 -436) translate(856.5 436)">
                <circle cx="25" cy="25" r="25" opacity=".1"/>
                <g fill-rule="nonzero">
                    <path d="M18.159 0H9.372c-1.015 0-1.84.803-1.84 1.79v5.478L5.9 6.479c-.055-.027-.111-.052-.168-.076.48-.486.775-1.144.775-1.869 0-1.49-1.249-2.704-2.783-2.704C2.19 1.83.941 3.043.941 4.534c0 .81.37 1.539.952 2.035C.82 7.156 0 8.3 0 9.719v1.83c0 .788.526 1.458 1.255 1.697v3.183c0 .314.262.57.586.57h3.766c.323 0 .586-.256.586-.57V10.03l1.876.912c.717.349 1.691.14 2.132-.653h2.1l-2.224 5.945c-.11.296.046.623.35.73.348.123.657-.089.751-.34l2.37-6.335h.411l2.395 6.336c.09.24.397.465.752.338.303-.108.46-.435.348-.73l-2.246-5.944h2.95c.996 0 1.842-.78 1.842-1.79V1.79C20 .78 19.154 0 18.159 0zM2.113 4.534c0-.863.723-1.565 1.61-1.565.89 0 1.612.702 1.612 1.565S4.612 6.1 3.724 6.1s-1.61-.703-1.61-1.566zM9.2 9.68l-.004.012c-.04.109-.13.2-.241.244-.117.047-.249.042-.361-.013L5.869 8.6c-.39-.19-.848.086-.848.51v6.75H2.427v-3.091c0-.314-.262-.57-.586-.57-.369 0-.67-.291-.67-.65V9.72c0-1.391 1.167-2.48 2.553-2.48h.518c.392 0 .785.09 1.135.26 0 0 2.907 1.404 3.647 1.763.158.076.234.256.175.418zm9.63-1.18c0 .173-.07.336-.197.46-.124.12-.297.19-.473.19h-7.83l-.004-.01 1.454-2.826c.145-.281.028-.623-.262-.764-.289-.14-.641-.027-.786.255l-1.24 2.41-.788-.38V1.788c0-.358.3-.65.67-.65h8.786c.176 0 .349.07.474.19.126.123.195.286.195.46V8.5z" transform="translate(15.5 17)"/>
                    <path d="M16.904 2.44h-6.276c-.324 0-.586.255-.586.57 0 .314.262.569.586.569h6.276c.323 0 .586-.255.586-.57 0-.314-.263-.57-.586-.57zM16.904 4.575h-3.138c-.324 0-.586.255-.586.57 0 .314.262.569.586.569h3.138c.323 0 .586-.255.586-.57 0-.314-.263-.57-.586-.57zM16.904 6.71h-3.138c-.324 0-.586.255-.586.57 0 .314.262.569.586.569h3.138c.323 0 .586-.255.586-.57 0-.314-.263-.57-.586-.57z" transform="translate(15.5 17)"/>
                </g>
            </g>
        </g>
    </g>
</svg>
