<svg xmlns="http://www.w3.org/2000/svg" width="50" height="50" viewBox="0 0 50 50">
    <g fill="none" fill-rule="evenodd">
        <g fill="#FF8719">
            <g transform="translate(-313 -206) translate(313 206)">
                <circle cx="25" cy="25" r="25" opacity=".1"/>
                <g fill-rule="nonzero">
                    <path d="M6.375 22.102c0 .496-.39.898-.873.898H3.493C1.567 23 0 21.388 0 19.406V3.594C0 1.612 1.567 0 3.493 0h10.738c1.926 0 3.493 1.612 3.493 3.594v5.345c0 .497-.39.899-.873.899-.482 0-.873-.402-.873-.899V3.594c0-.991-.784-1.797-1.747-1.797H3.493c-.963 0-1.746.806-1.746 1.797v15.812c0 .991.783 1.797 1.746 1.797h2.01c.482 0 .872.402.872.899zm7.856-15.813c0-.496-.391-.898-.874-.898H4.362c-.482 0-.874.402-.874.898s.392.899.874.899h8.995c.483 0 .874-.403.874-.899zm-3.489 3.594c0-.496-.39-.899-.873-.899H4.362c-.482 0-.874.403-.874.899s.392.898.874.898h5.507c.482 0 .873-.402.873-.898zm-6.38 2.695c-.482 0-.874.402-.874.899 0 .496.392.898.874.898h3.63c.482 0 .873-.402.873-.898 0-.497-.391-.899-.874-.899h-3.63zm15.236 9.754c-.336.424-.831.668-1.36.668H9.709c-.531 0-1.029-.243-1.364-.668-.338-.427-.47-.981-.36-1.521.282-1.399 1.03-2.67 2.104-3.583.407-.345.854-.633 1.328-.857-.528-.618-.85-1.427-.85-2.312 0-1.932 1.528-3.504 3.407-3.504 1.878 0 3.406 1.572 3.406 3.504 0 .885-.322 1.694-.85 2.312.474.224.921.512 1.328.857 1.054.894 1.792 2.134 2.087 3.499.007.023.013.047.017.072.11.543-.023 1.102-.364 1.533zm-7.284-8.273c0 .941.745 1.707 1.66 1.707.915 0 1.659-.766 1.659-1.707 0-.941-.744-1.707-1.66-1.707-.914 0-1.659.766-1.659 1.707zm5.939 7.119v-.002c-.42-2.078-2.22-3.586-4.28-3.586-2.059 0-3.859 1.508-4.278 3.586-.004.02.01.027.01.027h8.533s.012-.01.015-.025z" transform="translate(15 14)"/>
                </g>
            </g>
        </g>
    </g>
</svg>
