<svg xmlns="http://www.w3.org/2000/svg" width="51" height="50" viewBox="0 0 51 50">
    <g fill="none" fill-rule="evenodd">
        <g fill="#FF8719">
            <g transform="translate(-856 -206) translate(856.5 206)">
                <circle cx="25" cy="25" r="25" opacity=".1"/>
                <g fill-rule="nonzero" stroke="#FF8719" stroke-width=".5">
                    <path d="M10 0C4.486 0 0 4.474 0 9.974c0 1.81.814 3.758.848 3.84.263.622.782 1.59 1.156 2.156l6.857 10.362c.28.425.695.668 1.139.668.444 0 .859-.243 1.14-.668l6.856-10.362c.375-.567.893-1.534 1.156-2.156.034-.082.848-2.029.848-3.84C20 4.474 15.514 0 10 0zm8.068 13.359c-.235.558-.718 1.457-1.054 1.965l-6.857 10.362c-.135.205-.178.205-.313 0L2.986 15.324c-.335-.508-.818-1.408-1.053-1.966-.01-.024-.757-1.816-.757-3.384 0-4.853 3.959-8.8 8.824-8.8s8.824 3.947 8.824 8.8c0 1.57-.749 3.367-.756 3.385z" transform="translate(15.5 12)"/>
                    <path d="M10 4.694c-2.92 0-5.294 2.37-5.294 5.28 0 2.912 2.375 5.28 5.294 5.28 2.92 0 5.294-2.368 5.294-5.28 0-2.91-2.375-5.28-5.294-5.28zm0 9.387c-2.27 0-4.118-1.842-4.118-4.106C5.882 7.71 7.73 5.868 10 5.868c2.27 0 4.118 1.842 4.118 4.107 0 2.264-1.848 4.106-4.118 4.106z" transform="translate(15.5 12)"/>
                </g>
            </g>
        </g>
    </g>
</svg>
