<svg xmlns="http://www.w3.org/2000/svg" width="51" height="50" viewBox="0 0 51 50">
    <g fill="none" fill-rule="evenodd">
        <g fill="#FF8719">
            <g transform="translate(-1128 -206) translate(1128.25 206)">
                <circle cx="25" cy="25" r="25" opacity=".1"/>
                <g fill-rule="nonzero">
                    <path d="M19.142 15.015c-1.79-1.79-1.672-1.676-1.723-1.714l-4.738-3.499 1.838-1.838c1.478.527 3.151.163 4.277-.964 1.227-1.227 1.549-3.103.802-4.668-.175-.364-.658-.447-.943-.161L17.14 3.686c-.229.229-.6.229-.829 0-.229-.229-.229-.6 0-.828l1.515-1.516c.286-.286.203-.769-.161-.943-1.565-.747-3.44-.425-4.667.802-1.127 1.126-1.49 2.8-.964 4.277l-2.12 2.12c-.431-.335.138.238-3.927-4.073l.426-.426c.27-.27.214-.721-.113-.917L3.163.3C2.341-.194 1.293-.065.615.613-.063 1.292-.192 2.34.3 3.163L2.183 6.3c.196.327.648.382.917.113l.402-.402c4.044 4.289 3.511 3.706 3.831 4.117l.024.028-1.88 1.88C4 11.509 2.327 11.873 1.2 13c-1.226 1.227-1.548 3.102-.8 4.668.173.364.656.447.942.161l1.515-1.515c.229-.229.6-.229.829 0 .229.229.229.6 0 .828L2.17 18.658c-.285.286-.202.769.162.943.562.268 1.165.399 1.763.399 1.066 0 2.118-.415 2.904-1.2 1.126-1.127 1.49-2.8.964-4.279l1.605-1.605 3.738 4.543c.028.034-.066-.062 1.606 1.61.608.61 1.417.925 2.213.925.584 0 1.16-.17 1.645-.52 1.477-1.064 1.652-3.18.372-4.459zM3.94 4.768c-.227-.24-.608-.245-.84-.012l-.298.298-1.496-2.495c-.217-.36-.16-.82.137-1.117.297-.298.757-.354 1.117-.138l2.494 1.497-.298.298c-.224.224-.229.586-.011.816 4.67 4.954 3.936 4.208 4.334 4.518l-.889.89c-.307-.396.407.384-4.25-4.555zm2.918 9.202c-.176.175-.222.442-.115.666.534 1.118.304 2.458-.572 3.335-.562.561-1.313.858-2.075.858-.137 0-.274-.01-.41-.03l.828-.828c.687-.687.687-1.799 0-2.486-.685-.685-1.8-.685-2.485 0l-.829.829c-.127-.896.166-1.823.829-2.486.876-.877 2.216-1.107 3.334-.573.224.107.49.062.666-.114l7.11-7.11c.176-.176.221-.443.114-.667-.534-1.118-.303-2.458.573-3.335.663-.662 1.59-.956 2.485-.829l-.828.83c-.332.331-.515.773-.515 1.242 0 .47.183.91.515 1.243.685.685 1.8.685 2.485 0l.829-.83c.126.897-.167 1.824-.83 2.487-.876.876-2.215 1.107-3.333.573-.224-.107-.491-.062-.667.114l-7.11 7.11zm3.54-1.884l1.445-1.446 1.474 1.088-1.76 1.76c-1.197-1.454-1.123-1.366-1.16-1.402zm7.687 6.438c-.683.492-1.691.37-2.345-.283l-1.548-1.548-1.888-2.295 1.966-1.966 2.418 1.786 1.626 1.626c.743.743.695 2.014-.23 2.68z" transform="translate(14.75 15)"/>
                    <path d="M17.475 16.572l-2.343-2.344c-.228-.229-.6-.229-.828 0-.229.229-.229.6 0 .829l2.343 2.343c.229.229.6.229.828 0 .23-.229.23-.6 0-.828z" transform="translate(14.75 15)"/>
                </g>
            </g>
        </g>
    </g>
</svg>
